<?xml version="1.0" encoding="UTF-8"?>
<svg id="Layer_2" data-name="Layer 2" xmlns="http://www.w3.org/2000/svg" viewBox="0 0 322.83 328.94">
  <defs>
    <style>
      .cls-1 {
        fill: #e1b632;
      }
    </style>
  </defs>
  <g id="Layer_1-2" data-name="Layer 1">
    <path class="cls-1" d="m298.91,0H23.91C10.71,0,0,14.03,0,31.33v266.29c0,17.3,10.71,31.33,23.91,31.33h275c13.21,0,23.91-14.03,23.91-31.33V31.33c0-17.3-10.71-31.33-23.91-31.33Zm0,279.9c-.28,9.88-6.57,17.72-14.24,17.72h-18.64l8.97-211.46-113.59,93.98L47.83,93.98l8.97,203.63h-18.64c-7.67,0-13.97-7.83-14.24-17.72V49.25c0-9.79,6.16-17.72,13.75-17.72h7.17l116.58,117.28,116.58-117.28h7.17c7.59,0,13.75,7.93,13.75,17.72v230.64Z"/>
  </g>
</svg>