<?xml version="1.0" encoding="UTF-8"?>
<svg id="Layer_2" data-name="Layer 2" xmlns="http://www.w3.org/2000/svg" viewBox="0 0 328.94 328.94">
  <defs>
    <style>
      .cls-1 {
        fill: #e1b632;
      }
    </style>
  </defs>
  <g id="Layer_1-2" data-name="Layer 1">
    <path class="cls-1" d="m289.78,0H39.16C17.54,0,0,17.54,0,39.16v250.62c0,21.62,17.54,39.16,39.16,39.16h250.62c21.62,0,39.16-17.54,39.16-39.16V39.16c0-21.62-17.54-39.16-39.16-39.16ZM101.81,125.31v148.81h-46.99V125.31h46.99Zm-46.99-43.31c0-10.96,9.4-19.34,23.5-19.34s22.95,8.38,23.5,19.34c0,10.96-8.77,19.81-23.5,19.81s-23.5-8.85-23.5-19.81Zm219.29,192.12h-46.99v-78.32c0-15.66-7.83-31.33-27.41-31.64h-.63c-18.95,0-26.79,16.13-26.79,31.64v78.32h-46.99V125.31h46.99v20.05s15.12-20.05,45.5-20.05,56.31,21.38,56.31,64.69v84.11Z"/>
  </g>
</svg>